<svg width="175" height="64" viewBox="0 0 175 64" fill="none" xmlns="http://www.w3.org/2000/svg">
<g clip-path="url(#clip0_301_242)">
<path d="M0 23.7129L7.7804 36.8557L10.8926 33.8775L2.39896 21.2527L0 23.7129Z" fill="url(#paint0_linear_301_242)"/>
<path d="M115.798 13.354L115.474 15.1021L119.17 13.872L118.716 11.7355L115.798 13.354Z" fill="#0071B9"/>
<path d="M94.0132 1.50611L82.0184 15.2316L85.5196 14.2605L96.9309 0.0170288L94.0132 1.50611Z" fill="url(#paint1_linear_301_242)"/>
<path d="M158.266 20.2816L161.184 18.7277L160.341 26.1084L158.266 20.2816Z" fill="#1D2C5E"/>
<path d="M139.918 25.0078L142.576 25.5904L145.883 23.9719L142.965 22.8712L139.918 25.0078Z" fill="#1D2C5E"/>
<path d="M49.6649 17.2386L50.0539 25.7199L53.7496 24.2956L52.6474 15.6201L49.6649 17.2386Z" fill="url(#paint2_linear_301_242)"/>
<path d="M142.77 14.6489L139.853 16.2675L139.918 25.0078L142.9 23.5187L143.808 19.2457L142.77 14.6489Z" fill="url(#paint3_linear_301_242)"/>
<path d="M142.381 25.5905L139.14 54.3363L144.326 53.3004L145.299 24.0366L142.381 25.5905Z" fill="#312370"/>
<path d="M148.671 55.6959L148.8 59.5805L158.72 62.7529L161.703 61.199L151.912 53.6241L142.057 52.7825L139.14 54.3363L148.671 55.6959Z" fill="#21386E"/>
<path d="M111.843 48.8332L114.242 47.5383L115.863 50.387L118.132 49.1569L118.586 52.912L133.045 55.5017L135.898 53.8831L115.993 41.7762L101.858 44.1717L99.1353 46.8261L111.843 48.8332Z" fill="#21386E"/>
<path d="M107.24 13.4836L104.322 15.1021L99.1353 46.8261L102.053 45.2723L107.045 27.468L107.24 13.4836Z" fill="url(#paint4_linear_301_242)"/>
<path d="M84.158 17.7566L81.8239 18.9867L82.0184 19.7636L87.5295 16.2675L85.1306 13.6778L82.0184 15.2316L84.158 17.7566Z" fill="#1D2C5E"/>
<path d="M90.4472 55.2427L66.9114 43.589L69.8291 41.323L93.3648 53.6241L90.4472 55.2427Z" fill="#21386E"/>
<path d="M69.1159 11.865L65.5499 18.5982L69.3105 17.4976L72.0336 10.2464L69.1159 11.865Z" fill="#1D2C5E"/>
<path d="M36.6976 39.7691L33.7151 41.8409C33.7151 41.8409 34.3635 45.2075 35.2063 47.5383C36.0492 49.869 37.9943 51.7466 37.9943 51.7466C39.291 52.9767 40.7823 53.8831 42.5329 54.401C45.8395 55.3722 49.6001 54.7247 52.8419 52.653C53.6848 52.135 54.8518 51.2934 55.5651 50.5812C52.3881 52.5235 36.6976 39.7691 36.6976 39.7691Z" fill="url(#paint5_linear_301_242)"/>
<path d="M52.8419 25.0725L55.5651 55.3074L66.8467 53.6888L69.8291 52.135L55.8893 23.2597L53.0364 24.2308L50.054 25.7199L52.8419 25.0725Z" fill="#1D2C5E"/>
<path d="M10.698 35.5609L23.2764 63.983L35.2063 60.1632L38.124 58.2209L13.3564 32.3237L10.2442 34.2013L7.7804 36.8557L10.698 35.5609Z" fill="url(#paint6_linear_301_242)"/>
<path d="M135.12 48.9626L135.314 50.387C136.352 50.2575 137.389 50.128 138.361 49.8043C139.464 49.4158 141.798 48.3799 142.641 47.603C142.252 47.7325 136.805 49.1569 135.12 48.9626Z" fill="#1D2C5E"/>
<path d="M92.911 41.7114L93.3649 43.9774C95.7638 43.589 97.8386 42.7473 99.9134 41.5172C101.21 40.7403 102.572 39.6397 103.026 39.3159C102.701 39.5102 92.911 41.7114 92.911 41.7114Z" fill="#1D2C5E"/>
<path d="M26.5499 61.2728L25.6422 59.2011L13.7123 32.6565L13.4529 32.1386L12.9342 32.3975L12.5452 32.5918L10.4056 33.6276C10.0814 33.1097 9.56274 32.2033 9.23855 31.6206L4.44064 23.5278L3.20874 21.3912L5.28351 20.0964C7.22862 18.8663 9.43306 17.7009 11.8969 16.665C16.6948 14.658 21.5575 13.5574 26.0313 13.5574C27.5225 13.5574 28.9489 13.6868 30.2456 13.8811C32.4501 14.14 34.5249 14.8522 36.2106 16.0176C38.7392 17.4419 40.7492 19.6432 41.8514 22.2329C42.7591 24.3694 42.9536 26.8944 42.3701 29.4841L42.0459 31.0379L43.3427 30.1315C44.1855 29.4841 45.0932 28.9662 46.0658 28.5777C47.7515 27.8655 49.5021 27.4771 51.2527 27.4771C52.9385 27.4771 54.4946 27.8008 55.921 28.4482L56.8287 28.8367L56.7638 27.8008L56.3748 23.463L56.31 22.7508L55.6616 22.9451L53.6517 23.463L53.3275 16.0823L68.1103 11.3561L67.9806 17.1182L69.0828 17.3772L72.3246 11.2266L81.9853 19.7727L82.3743 20.1611L82.7634 19.7727C84.0601 18.5426 85.681 17.5067 87.4316 16.7945L88.1448 16.4708L87.6261 15.8234L85.8755 13.6868L96.9626 0.932495L102.798 9.60804L93.9153 14.399L91.9702 15.4349L94.2395 15.4996C98.4538 15.5644 102.214 17.3772 104.743 20.4848L105.651 21.6502L106.234 22.3624L105.262 23.3983L104.613 24.1104L102.409 26.5059L102.02 26.9591L102.474 27.3476L104.548 29.2251L105.327 29.9373L105.521 28.9014L106.299 23.981L106.494 22.6861L106.688 21.3912L107.855 14.0753H118.877L118.942 13.5574L119.137 12.3272H128.733L131.067 26.9591L131.196 27.9303L131.974 27.3476C132.947 26.6354 133.984 26.1175 135.087 25.6643C136.578 25.0816 138.069 24.8226 139.625 24.8226C141.441 24.8226 143.191 25.2111 144.682 26.0527C144.747 26.0527 144.747 26.1175 144.877 26.1822L145.59 26.4412L145.655 25.6643L145.849 24.0457L145.914 23.5278L145.396 23.3983L143.451 22.9451L143.386 15.3054L158.233 18.5426L159.335 24.0457H160.503L161.67 19.3195L174.053 22.2976L161.345 60.4312L152.333 57.5825L152.268 54.0864V53.5684L151.75 53.5037L142.737 52.2088L143.256 47.6121L143.386 46.5115L142.413 47.0294C141.959 47.2884 141.505 47.4826 141.052 47.6121C139.56 48.1948 138.069 48.4538 136.578 48.4538C136.124 48.4538 135.735 48.4538 135.281 48.389L134.503 48.3243L134.633 49.1012L135.281 53.1152L122.119 50.7845L121.406 44.8282L121.212 42.8859L120.304 44.5692L118.813 47.4826L116.025 42.3679L115.182 40.8141L114.922 42.5622L114.339 46.5115L102.798 44.6987L103.706 39.2603L103.9 38.0302L102.798 38.6776C100.918 39.7782 98.7132 40.6846 96.1846 41.2673C95.2768 41.4615 94.3691 41.6558 93.3966 41.7205L92.8779 41.7852V52.662L70.185 41.4615L69.3422 41.0731V51.6262L59.1628 53.1152L58.7089 48.5185L58.5793 47.2884L57.6716 48.13C56.31 49.4249 54.8187 50.4608 53.1978 51.173C51.5121 51.8851 49.7615 52.2736 48.0757 52.2736C46.3251 52.2736 44.7042 51.8851 43.213 51.2377C40.4898 49.9428 38.4799 47.5474 37.637 44.5044C37.248 43.0801 37.1183 41.591 37.3128 40.0372L37.5073 38.4186L36.3403 39.584C35.4974 40.3609 34.5897 41.1378 33.6171 41.85L33.293 42.109L33.4226 42.4974L36.859 55.5755L37.4425 57.9062L35.1732 58.6184L28.7544 60.6902L26.5499 61.2728ZM29.4028 26.1175C29.0786 26.1175 28.7544 26.1175 28.3654 26.1822L27.9115 26.247L27.2631 26.3764L27.4577 27.0239L27.5873 27.4123L29.4028 33.4334L29.5973 34.0161L29.8566 34.8578L30.505 34.2751L30.9588 33.8866C32.7743 32.268 33.3578 30.6495 32.9688 28.5777C32.7094 27.3476 31.8017 26.7649 31.2182 26.5059C30.8292 26.247 30.116 26.1175 29.4028 26.1175ZM78.8083 26.3117L77.6413 27.4123L74.5939 30.3258L73.9456 30.9732L74.7884 31.2969L78.0303 32.527L79.0028 32.9155L78.8083 31.8796C78.549 30.52 78.4841 29.1604 78.6138 27.8655L78.8083 26.3117ZM92.035 22.9451C90.8031 22.9451 89.5712 23.463 88.7283 24.4342C87.4316 25.8585 87.1723 27.995 88.08 29.6783L88.3393 30.1315L88.7283 30.8437L89.3119 30.1963L89.7009 29.8078L94.1746 24.7579L94.4988 24.3694L95.0823 23.722L94.3043 23.3983L93.7856 23.204C93.1372 23.0746 92.6185 22.9451 92.035 22.9451Z" fill="#FFCB05"/>
<path d="M98.8111 30.4462L98.6815 30.5757C98.7463 30.5757 98.8111 30.5109 98.8111 30.4462Z" fill="#7D7F68"/>
<path d="M102.701 26.95L104.906 24.5546L104.128 25.3315V25.2667L103.479 25.9789L101.275 28.3097L103.35 30.1872L103.739 27.8565L104.776 28.7629L102.701 26.95Z" fill="#7D7F68"/>
<path d="M102.701 26.9501L104.776 28.7629L105.554 23.8424L104.906 24.5546L102.701 26.9501Z" fill="#7D7F68"/>
<path d="M87.335 32.8417C87.5295 33.0359 87.335 32.9064 87.5295 33.0359L88.8911 32.0647C88.6966 31.9353 88.5021 31.741 88.3076 31.6115C86.3625 29.7987 86.8812 25.7847 88.1131 23.5834C84.7416 26.3026 84.9361 30.4462 87.335 32.8417Z" fill="#C7A008"/>
<path d="M103.739 35.1077C101.469 36.9852 98.9408 38.1506 95.5693 38.9922C94.8561 39.1865 94.0781 39.3159 93.4297 39.3159C88.0483 39.8339 83.5745 37.3737 81.8888 33.4243C81.6943 32.9711 81.4997 32.4532 81.3701 31.9353C80.592 28.5686 81.2404 25.5905 82.9261 23.195C83.1207 22.936 83.2503 22.7418 83.4448 22.5475C83.38 22.6123 83.2503 22.677 83.1855 22.7418C82.5371 23.3245 81.9536 23.9071 81.4997 24.6193C79.814 26.9501 79.1656 29.993 79.9437 33.3596C80.0733 33.8775 80.203 34.3955 80.4624 34.8487C82.1481 38.8627 86.6867 41.323 92.0033 40.805C92.7165 40.7403 93.4297 40.6108 94.2077 40.4166C97.5792 39.5749 100.173 38.4095 102.377 36.532C102.896 36.0788 103.479 35.5609 103.998 35.0429L103.933 34.9782C103.804 35.0429 103.739 35.0429 103.739 35.1077Z" fill="#C7A008"/>
<path d="M65.9389 24.943L71.9039 16.5264L71.6446 16.3322L65.8741 24.4251L65.9389 24.943Z" fill="#C7A008"/>
<path d="M105.554 23.8424L104.776 28.7629L103.739 27.8565L103.35 30.1872L101.275 28.3097L103.479 25.9789L104.128 25.2668V25.3315L104.906 24.5546L105.554 23.8424Z" fill="#C7A008"/>
<path d="M98.1628 9.98744L100.238 9.08104L96.4122 4.16058L95.1803 5.97338L98.1628 9.98744Z" fill="#C7A008"/>
<path d="M40.0691 22.1591C30.3436 10.3759 12.9025 16.7207 6.67816 22.2238L6.93751 22.677C8.36392 21.8354 9.92 21.1232 11.4761 20.411C17.7004 17.7566 23.6654 16.9796 28.3985 17.8213C30.0842 18.0155 31.8348 18.5335 33.3909 19.5694C35.5305 20.7995 37.1514 22.4828 38.124 24.684C39.8097 28.5686 38.3185 33.7481 34.3634 38.0211C39.3559 33.4243 42.7922 29.0218 40.0691 22.1591Z" fill="#C7A008"/>
<path d="M59.8443 35.8846C59.7794 35.6903 59.7794 35.4314 59.7146 35.2371C59.1959 33.2949 58.0288 31.741 56.4728 30.7051C54.009 29.0218 50.5078 28.6981 47.0714 30.1224C45.256 30.8994 43.6999 32.1295 42.4032 33.5538C43.3757 32.7122 44.478 32.0647 45.645 31.5468C49.0814 30.0577 52.5826 30.4462 55.0464 32.1295C56.6024 33.1654 57.7695 34.7192 58.2882 36.6615C58.353 36.8557 58.4179 37.1147 58.4179 37.3089C58.5475 38.0858 58.6124 38.798 58.6124 39.5749C58.5475 41.8409 57.7047 44.1069 56.3431 46.0492C56.1486 46.3729 55.8892 46.6319 55.6299 46.9556C56.4079 46.2434 57.1211 45.5312 57.7047 44.6896C59.1311 42.7473 59.9091 40.4813 60.0388 38.2153C60.0388 37.4384 59.9739 36.6615 59.8443 35.8846Z" fill="#C7A008"/>
<path d="M50.3133 33.0359C50.3133 33.0359 51.7397 31.6115 51.6748 31.6115C49.9242 31.5468 49.1462 33.2301 49.0814 33.3596C49.4704 33.1654 49.8594 33.1006 50.3133 33.0359Z" fill="#C7A008"/>
<path d="M53.62 35.0429C53.6848 35.3019 53.7496 35.4961 53.7496 35.7551C53.7496 36.1435 53.6848 36.4673 53.4903 36.791C53.7496 36.6615 55.8244 35.6256 55.0464 33.5538C55.1112 33.6833 53.5551 35.0429 53.62 35.0429Z" fill="#C7A008"/>
<path d="M45.5802 36.273C45.5802 35.4314 47.0715 33.2948 47.5253 32.5827C45.1912 34.0718 44.1538 36.0788 44.1538 37.6326C44.1538 40.3518 46.5528 42.5531 49.4056 42.5531C50.7671 42.5531 53.2309 41.8409 54.8519 39.2512C54.009 39.8339 51.8694 41.1287 50.7023 41.1287C47.8495 41.1287 45.5802 38.9922 45.5802 36.273Z" fill="#C7A008"/>
<path d="M65.6147 38.7332L65.6796 49.6748L67.4302 49.8043L67.0412 37.3089L65.6147 38.7332Z" fill="#C7A008"/>
<path d="M55.6299 17.8213V18.7925L63.929 16.3322L64.5125 26.8853L65.9389 24.943L65.6147 14.39L55.6299 17.8213Z" fill="#C7A008"/>
<path d="M80.592 21.5764L72.8764 14.4547L71.9039 16.5265L78.7766 22.936L80.592 21.5764Z" fill="#C7A008"/>
<path d="M79.4249 34.8487L70.2829 31.8058L68.9862 33.2301L78.0633 36.8557C79.1007 38.798 80.6568 40.4813 82.6019 41.6467C84.4822 42.812 86.6866 43.5242 88.9559 43.7184V48.1857L90.3823 48.8979L90.8362 42.1646L79.4249 34.8487Z" fill="#C7A008"/>
<path d="M94.078 33.6186C96.3473 33.1006 97.5792 31.9353 98.7463 30.6404C97.9034 31.3526 93.7539 32.259 93.0407 32.4532L91.6791 33.9423C92.2626 33.9423 93.3 33.8128 94.078 33.6186Z" fill="#C7A008"/>
<path d="M89.9933 18.0803C85.8438 18.5982 83.7042 22.0944 83.38 22.4828C84.9361 21.188 86.8163 20.2168 88.956 19.7636C94.0781 18.5335 98.5518 20.0873 101.34 23.5187L103.09 22.0944C100.302 18.7277 95.1154 16.8502 89.9933 18.0803Z" fill="#C7A008"/>
<path d="M103.868 34.9782C104.387 34.5897 105.23 34.1365 105.749 33.6186L100.238 28.6981C99.7837 29.2161 99.4595 30.0577 98.9408 30.4462L103.868 34.9782Z" fill="#C7A008"/>
<path d="M132.202 48.1857C126.432 43.3948 126.756 33.2301 129.609 29.993L127.08 14.0015L121.504 14.7137L121.245 16.138H125.459L127.728 30.6404C124.875 33.8776 123.514 38.2153 124.422 42.2294C125.135 45.337 127.08 47.7973 129.803 49.2216C130.062 49.3511 130.387 49.4806 130.646 49.6101L130.711 49.8043L132.397 50.0633C132.332 50.128 132.526 48.3152 132.202 48.1857Z" fill="#C7A008"/>
<path d="M109.963 16.3322L109.704 17.7566H116.058L117.938 28.0507L119.364 26.6263L117.873 15.7495L109.963 16.3322Z" fill="#C7A008"/>
<path d="M120.856 36.273L118.781 41.5819L119.3 43.0063L122.217 34.9134L120.856 36.273Z" fill="#C7A008"/>
<path d="M114.761 32.9711L113.335 34.3955L111.778 43.9774L113.27 44.4954L114.761 32.9711Z" fill="#C7A008"/>
<path d="M143.354 29.8635C144.197 30.4462 144.91 31.2231 145.429 32.1295C145.883 32.8417 146.142 33.5538 146.401 34.4602C147.114 37.3737 146.272 40.4813 144.456 42.9416C144.262 43.2005 144.067 43.4595 143.873 43.6537C144.586 43.0063 153.663 36.3378 144.845 27.5975C135.12 24.4251 131.424 30.7052 131.1 31.1584C132.137 30.3167 133.304 29.5398 134.601 29.0866C137.843 27.7917 141.085 28.2449 143.354 29.8635Z" fill="#C7A008"/>
<path d="M138.491 30.5109C138.491 30.5757 139.918 29.0866 139.918 29.0866C138.167 29.1513 137.324 29.993 137.454 30.3814C137.324 30.5109 137.259 30.7051 137.194 30.8346C137.519 30.6404 138.232 30.5109 138.491 30.5109Z" fill="#C7A008"/>
<path d="M141.733 32.7122C141.798 32.9711 141.798 33.1654 141.798 33.4243C141.798 33.7481 141.668 34.0718 141.539 34.3307C141.798 34.2013 143.873 33.5538 143.095 31.2231C143.159 31.3526 141.668 32.7122 141.733 32.7122Z" fill="#C7A008"/>
<path d="M137.13 40.0281C139.075 40.0929 141.279 38.9275 142.835 36.791C138.88 37.6326 134.666 30.9641 135.055 30.3167C133.564 31.4173 132.202 33.4891 132.137 34.9782C132.008 37.6974 134.277 39.8986 137.13 40.0281Z" fill="#C7A008"/>
<path d="M158.979 57.3145L159.887 57.8971L171.298 23.7129L162.74 21.7706L162.675 23.7777L169.548 25.2667L158.979 57.3145Z" fill="#C7A008"/>
<path d="M145.429 18.0803L145.494 20.0226L154.571 21.8354L158.072 38.4095L159.498 36.9852L156.127 20.2168L145.429 18.0803Z" fill="#C7A008"/>
<path d="M152.431 36.9852L149.902 51.0991L151.329 51.5523L153.857 35.5609L152.431 36.9852Z" fill="#C7A008"/>
<path d="M34.6228 56.2786L30.4084 40.8698L28.8524 41.9704L32.8074 56.667L34.6228 56.2786Z" fill="#C7A008"/>
<path d="M33.5206 33.1654C32.548 34.2013 30.3436 36.2083 29.1117 36.9852L28.3336 34.5897L26.7127 29.2808L25.6753 25.7199L24.6379 27.0148L25.6753 30.5757L27.2962 35.8198L28.0743 38.2153C29.8249 37.2442 32.2887 35.1724 33.5206 33.1654Z" fill="#C7A008"/>
<path d="M93.689 24.0366C92.3274 23.5187 90.4472 23.6482 89.4098 24.8136C89.1504 25.0725 88.6966 25.72 88.5669 26.0437C89.5394 25.2668 91.3549 25.0725 92.4571 25.5257L93.689 24.0366Z" fill="#7D7F68"/>
<path d="M32.3535 28.8276C32.2238 28.0507 31.4458 27.4033 31.0568 27.209C30.4084 26.8853 29.1765 26.8206 28.3336 27.0148C28.4633 27.5327 28.6578 28.1802 28.7226 28.4391C29.0468 28.5039 29.6304 28.5686 29.9545 28.6981C30.3436 28.8923 30.9919 29.2808 31.1216 30.1225C31.3161 31.1583 31.2513 32.1942 30.7974 32.9711C32.0293 31.8058 32.6128 30.5109 32.3535 28.8276Z" fill="#7D7F68"/>
<path d="M34.46 28.7719C33.8765 25.6643 29.7918 23.9162 25.7071 26.1175L26.7445 29.6783L28.3654 34.9872L29.1434 37.3827C32.1908 35.5052 35.2381 33.1097 34.46 28.7719ZM30.4402 33.6276C29.9863 32.2033 29.0138 29.0956 29.0138 29.0956C29.0138 29.0956 28.8193 28.4482 28.5599 27.6713C29.4028 27.5418 30.2457 27.6066 30.894 27.9303C31.283 28.1245 31.9314 28.513 32.0611 29.3546C32.4501 31.0379 31.8666 32.3328 30.4402 33.6276Z" fill="#3C5AA6"/>
<path d="M95.7956 23.8514C93.5263 21.7797 90.0251 21.9092 87.9503 24.1752C85.8755 26.4412 86.0052 29.9373 88.2745 32.009C88.469 32.2033 88.6635 32.3328 88.858 32.4622L96.1846 24.1752C96.0549 24.1104 95.9252 23.9809 95.7956 23.8514ZM88.9229 29.6783C88.2097 28.3834 88.3393 26.7001 89.4416 25.5348C90.4789 24.4341 92.035 24.1104 93.3966 24.6284L88.9229 29.6783Z" fill="#3567B0"/>
<path d="M105.554 22.936L101.534 26.8206L105.36 30.2519L105.554 22.936Z" fill="#1E2D5F"/>
<path d="M143.095 31.2878C143.159 31.5468 143.159 31.8058 143.159 32.0648C143.095 33.6186 141.668 34.784 139.918 34.7192C138.167 34.6545 136.805 33.3596 136.87 31.8058C136.935 30.3814 138.232 29.2161 139.788 29.1513C139.464 29.0866 139.14 29.0218 138.815 29.0218C135.898 28.8924 133.564 30.9641 133.434 33.4891C133.304 36.2083 135.509 38.4743 138.361 38.539C141.279 38.6685 143.613 36.5968 143.743 33.8776C143.937 32.9712 143.613 32.0648 143.095 31.2878Z" fill="#3466AF"/>
<path d="M55.176 34.3955C55.176 35.9493 53.7496 37.1794 52.0639 37.1794C50.3133 37.1794 48.9517 35.9493 48.9517 34.3955C48.9517 32.9712 50.1836 31.741 51.8045 31.6116C51.4803 31.5468 51.1561 31.5468 50.832 31.5468C47.9143 31.5468 45.645 33.6833 45.645 36.273C45.645 38.9922 47.9143 41.1288 50.7671 41.1288C53.6848 41.1288 55.9541 38.9922 55.9541 36.273C55.9541 35.3019 55.6299 34.4602 55.1112 33.6833C55.1112 33.8776 55.176 34.1365 55.176 34.3955Z" fill="url(#paint7_linear_301_242)"/>
<path d="M161.151 18.7368L159.854 24.0457L158.687 18.1541L142.737 14.658L142.867 23.5278L145.266 24.0457L145.071 25.6643C145.071 25.6643 145.007 25.6643 145.007 25.5995C142.024 24.0457 138.328 23.8515 134.892 25.2111C133.725 25.6643 132.623 26.2469 131.65 26.9591L129.251 11.8093H118.683L118.424 13.5573H107.272L105.975 21.3265L105.067 20.1611C102.344 16.8592 98.4539 15.0464 94.1098 14.9169L103.576 9.86701L96.9626 0.0260925L85.0327 13.7516L87.1075 16.2765C85.2272 17.0535 83.6063 18.0893 82.2447 19.3842L72.0005 10.3202L68.4345 17.1182L68.5642 10.5144L52.5495 15.6291L53.0034 24.1752L55.7265 23.463L56.1155 27.8008C53.0034 26.3764 49.2428 26.4412 45.8065 27.9303C44.7691 28.3835 43.7965 28.9014 42.9537 29.5488C43.5372 26.8944 43.4075 24.3047 42.3701 21.9739C41.2031 19.2547 39.0635 16.924 36.5348 15.4996C34.7194 14.2695 32.5798 13.5574 30.3105 13.2984C24.7994 12.3272 18.1212 13.2984 11.5727 16.0823C9.17376 17.1182 6.90447 18.2836 4.89454 19.5784L2.36591 21.197L3.92199 23.7867L8.7199 31.9443L10.2111 34.4045L12.8046 33.1097L13.1936 32.9155L25.1236 59.46L26.2906 61.985L28.9489 61.1434L35.3678 59.0716L38.2206 58.1652L37.5074 55.3165L34.071 42.2384C35.0436 41.5263 35.9513 40.7493 36.7942 39.9077C36.5997 41.4615 36.7293 43.0801 37.1184 44.5692C38.0261 47.7416 40.1009 50.2666 43.0185 51.6262C46.1307 53.1152 49.956 53.1152 53.4572 51.6262C55.2078 50.8492 56.8287 49.8134 58.1255 48.4538L58.5793 53.6979L69.8609 52.0146V41.9147L93.3966 53.5684V42.3679C94.3692 42.3032 95.2769 42.109 96.2494 41.9147C98.8429 41.2673 101.047 40.4256 103.057 39.2603L102.085 45.2813L114.793 47.2884L115.506 42.6916L118.813 48.8422L120.823 44.9576L121.536 51.3672L135.929 53.8922L135.151 49.0364C137.097 49.2307 139.171 48.9717 141.181 48.2595C141.635 48.0653 142.154 47.8711 142.543 47.6121L141.959 52.7915L151.555 54.1511L151.62 58.1004L161.605 61.2081L174.637 22.0387L161.151 18.7368ZM104.873 24.5636L105.521 23.8515L104.743 28.7719L102.668 26.8944L104.873 24.5636ZM96.4439 4.36386L99.9451 9.09009L89.9603 14.0105L89.2471 12.9747C89.2471 13.0394 96.4439 4.36386 96.4439 4.36386ZM30.3754 40.8788L34.3304 56.1582L27.9116 58.2299L14.6849 28.7072C13.9717 29.0956 12.6101 29.7431 11.443 30.3257L6.64513 22.2329C8.52539 21.0028 10.665 19.9669 12.8694 18.9957C19.0938 16.3413 25.0587 15.5644 29.7918 16.406C31.4776 16.6003 33.2282 17.1182 34.7842 18.1541C36.9239 19.3842 38.5448 21.0675 39.5173 23.2688C41.8515 28.5777 38.0261 36.2174 30.3754 40.8788ZM60.0057 38.1596C59.9409 40.4256 59.098 42.6916 57.6716 44.6339C56.31 46.5115 54.4946 48.0006 52.2902 48.9717C46.7142 51.3672 41.1382 48.9717 39.647 43.6628C38.2206 38.5481 41.5921 32.4623 46.9735 30.1315C50.4099 28.6424 53.9111 29.0309 56.3749 30.7142C57.931 31.7501 59.098 33.3039 59.6167 35.2462C59.6815 35.4404 59.7464 35.6994 59.7464 35.8936C60.0057 36.6705 60.0057 37.4475 60.0057 38.1596ZM90.4141 48.9717L67.0081 37.318L67.0729 49.5544L61.0431 50.396L60.5893 45.3461C62.4695 42.1737 63.1179 38.3539 62.1453 34.9225C61.6266 33.0449 60.6541 31.3616 59.2925 30.0668L58.4496 19.7727L55.7265 20.4848L55.5968 17.8951L65.3223 14.9817L65.9059 24.9521L73.0379 14.9169L80.1051 21.5855L70.3148 31.8796L79.5216 35.5052C80.559 37.4475 82.115 39.066 84.0601 40.2962C85.9404 41.4615 88.1448 42.1737 90.4141 42.3679V48.9717ZM78.2897 32.0091L75.0478 30.7789L78.0952 27.8655C77.9007 29.2251 77.9655 30.5847 78.2897 32.0091ZM103.706 35.1167C101.436 36.9943 98.9077 38.1596 95.5362 39.0013C94.823 39.1955 94.045 39.325 93.3966 39.325C88.0152 39.8429 83.5414 37.3827 81.8557 33.4334C81.6612 32.9802 81.4667 32.4623 81.337 31.9443C80.5589 28.5777 81.2073 25.5995 82.8931 23.204C83.3469 22.4919 83.9305 21.9092 84.5788 21.3265C86.1349 19.9021 88.1448 18.931 90.4141 18.3483C95.5362 17.1182 100.01 18.672 102.798 22.0387L93.0724 32.3975C93.7208 32.527 94.7582 32.3328 95.5362 32.1385C97.8703 31.5559 99.1671 30.3257 100.269 29.0309L104.16 32.527L105.327 33.5629C104.808 34.1456 104.289 34.6635 103.706 35.1167ZM124.389 48.9069L122.249 34.9225L119.266 42.6269L114.793 32.9802H114.728L112.977 44.1807L105.521 42.8859L106.558 36.6705C106.818 36.4116 107.142 36.1526 107.401 35.8289L109.8 33.3687L107.466 31.2322L109.995 16.3413H117.516L119.396 26.6354L121.536 14.7227H126.917L129.186 29.2251C126.334 32.4623 124.972 36.8 125.88 40.8141C126.593 43.9217 128.538 46.382 131.261 47.8711C131.521 48.0005 131.845 48.13 132.104 48.2595L132.363 50.1371L124.389 48.9069ZM142.997 44.3102C142.154 44.8929 141.246 45.4108 140.274 45.7346C138.328 46.4467 136.448 46.6409 134.698 46.2525C133.531 45.9935 132.428 45.5403 131.456 44.8929C129.965 43.7923 128.862 42.2384 128.344 40.2314C127.76 37.8359 128.279 35.2462 129.575 32.9802C130.224 31.8796 131.067 30.8437 132.039 29.9373C133.142 28.9662 134.438 28.1245 135.8 27.6065C139.106 26.3764 142.348 26.8296 144.618 28.4482C145.46 29.0309 146.174 29.8078 146.692 30.7142C147.081 31.4264 147.406 32.2033 147.6 33.0449C148.313 35.9584 147.47 39.066 145.655 41.5263C145.071 42.6269 144.099 43.5333 142.997 44.3102ZM159.854 57.5178L154.343 55.8992L153.889 35.5699L151.101 51.2377L145.071 50.2666L145.525 45.7346C149.48 42.4327 151.555 37.1885 150.388 32.3975C149.869 30.3258 148.832 28.4482 147.276 27.0886L147.795 21.7797L145.525 21.197L145.59 18.3483L155.964 20.4201L159.465 36.9295L163.031 22.1034L170.941 23.8515L159.854 57.5178Z" fill="url(#paint8_linear_301_242)"/>
</g>
<defs>
<linearGradient id="paint0_linear_301_242" x1="8.62328" y1="34.67" x2="2.14253" y2="22.576" gradientUnits="userSpaceOnUse">
<stop stop-color="#0070B6"/>
<stop offset="1" stop-color="#1D2C5E"/>
</linearGradient>
<linearGradient id="paint1_linear_301_242" x1="87.8375" y1="9.97837" x2="96.0687" y2="1.14591" gradientUnits="userSpaceOnUse">
<stop stop-color="#0070B6"/>
<stop offset="1" stop-color="#1D2C5E"/>
</linearGradient>
<linearGradient id="paint2_linear_301_242" x1="51.8707" y1="24.6841" x2="50.8905" y2="16.4368" gradientUnits="userSpaceOnUse">
<stop stop-color="#0070B6"/>
<stop offset="1" stop-color="#1D2C5E"/>
</linearGradient>
<linearGradient id="paint3_linear_301_242" x1="141.925" y1="23.0966" x2="141.534" y2="15.6524" gradientUnits="userSpaceOnUse">
<stop stop-color="#125D9E"/>
<stop offset="1" stop-color="#1D2C5E"/>
</linearGradient>
<linearGradient id="paint4_linear_301_242" x1="114.411" y1="12.3667" x2="105.778" y2="26.1216" gradientUnits="userSpaceOnUse">
<stop stop-color="#125D9E"/>
<stop offset="1" stop-color="#1D2C5E"/>
</linearGradient>
<linearGradient id="paint5_linear_301_242" x1="37.8452" y1="34.4104" x2="43.7305" y2="46.0017" gradientUnits="userSpaceOnUse">
<stop stop-color="#105FA1"/>
<stop offset="1" stop-color="#1D2C5E"/>
</linearGradient>
<linearGradient id="paint6_linear_301_242" x1="15.5874" y1="30.4565" x2="22.398" y2="46.2675" gradientUnits="userSpaceOnUse">
<stop stop-color="#105FA1"/>
<stop offset="1" stop-color="#1D2C5E"/>
</linearGradient>
<linearGradient id="paint7_linear_301_242" x1="45.551" y1="36.3274" x2="55.8788" y2="36.3274" gradientUnits="userSpaceOnUse">
<stop stop-color="#3C5AA6"/>
<stop offset="0.933" stop-color="#2B73B9"/>
<stop offset="1" stop-color="#2A75BB"/>
</linearGradient>
<linearGradient id="paint8_linear_301_242" x1="2.41583" y1="31.0191" x2="174.715" y2="31.0191" gradientUnits="userSpaceOnUse">
<stop stop-color="#3C5AA6"/>
<stop offset="0.933" stop-color="#2B73B9"/>
<stop offset="1" stop-color="#2A75BB"/>
</linearGradient>
<clipPath id="clip0_301_242">
<rect width="174.735" height="64" fill="white"/>
</clipPath>
</defs>
</svg>
