<svg width="18" height="19" viewBox="0 0 18 19" fill="none" xmlns="http://www.w3.org/2000/svg">
<g clip-path="url(#clip0_301_183)">
<path d="M9 0.5C4.03748 0.5 0 4.53748 0 9.5C0 14.4625 4.03748 18.5 9 18.5C13.9625 18.5 18 14.4625 18 9.5C18 4.53748 13.9625 0.5 9 0.5Z" fill="#303C42"/>
<path opacity="0.2" d="M7.79686 9.95311C7.79686 9.12584 8.46957 8.45309 9.29687 8.45309C9.72631 8.45309 10.1114 8.63675 10.3851 8.92682C10.1595 8.38345 9.62421 8 9.00001 8C8.17275 8 7.5 8.67272 7.5 9.50001C7.5 9.89784 7.65824 10.2576 7.91175 10.5263C7.836 10.3447 7.79695 10.1499 7.79686 9.95311Z" fill="white"/>
<path d="M9 0.5C4.03748 0.5 0 4.53748 0 9.5C0 14.4625 4.03748 18.5 9 18.5C13.9625 18.5 18 14.4625 18 9.5C18 4.53748 13.9625 0.5 9 0.5Z" fill="#293539"/>
<path d="M9.00001 1.25C13.2718 1.25 16.7947 4.5138 17.2084 8.67848C16.598 8.81366 15.0475 9.09607 12.7118 9.12173C12.519 7.2337 10.9381 5.74996 9.00001 5.74996C7.06195 5.74996 5.48105 7.23366 5.28825 9.12173C2.95254 9.09607 1.40201 8.81366 0.791626 8.67848C1.20534 4.51384 4.72825 1.25 9.00001 1.25Z" fill="#F15354"/>
<path d="M8.99999 12.5C10.6568 12.5 12 11.1568 12 9.49999C12 7.84314 10.6568 6.5 8.99999 6.5C7.34314 6.5 6 7.84314 6 9.49999C6 11.1568 7.34314 12.5 8.99999 12.5Z" fill="#495E66"/>
<path d="M9.00001 17.75C4.45093 17.75 0.75 14.0491 0.75 9.50001C0.75 9.47906 0.753023 9.45885 0.753164 9.43793C1.46719 9.58994 3.01104 9.84388 5.28727 9.86863C5.4756 11.7613 7.05861 13.25 9.00001 13.25C10.9414 13.25 12.5244 11.7613 12.7128 9.86863C14.989 9.84388 16.5328 9.58994 17.2469 9.43793C17.247 9.45885 17.25 9.47903 17.25 9.50001C17.25 14.0491 13.5491 17.75 9.00001 17.75Z" fill="white"/>
<path d="M9 11.75C10.2426 11.75 11.25 10.7426 11.25 9.5C11.25 8.25736 10.2426 7.25 9 7.25C7.75736 7.25 6.75 8.25736 6.75 9.5C6.75 10.7426 7.75736 11.75 9 11.75Z" fill="#3A4549"/>
<path d="M9.00001 11C9.82845 11 10.5 10.3284 10.5 9.50001C10.5 8.67158 9.82845 8 9.00001 8C8.17158 8 7.5 8.67158 7.5 9.50001C7.5 10.3284 8.17158 11 9.00001 11Z" fill="#F1F1F1"/>
<path opacity="0.1" d="M15.6355 8.93739C16.3755 8.84753 16.9074 8.74519 17.2084 8.67846C17.0045 6.62551 16.0427 4.79384 14.6105 3.46173C15.33 4.68566 15.7501 6.10562 15.7501 7.625C15.7501 8.07265 15.7044 8.5089 15.6355 8.93739ZM17.2469 9.43791C16.8762 9.51683 16.2771 9.62272 15.4727 9.71026C14.5453 13.2511 11.3275 15.875 7.50005 15.875C5.32778 15.875 3.35484 15.0247 1.88 13.6474C3.31238 16.0966 5.96379 17.75 9.00006 17.75C13.5491 17.75 17.2501 14.0491 17.2501 9.49999C17.2501 9.47904 17.247 9.45882 17.2469 9.43791Z" fill="#636363"/>
</g>
<defs>
<clipPath id="clip0_301_183">
<rect width="18" height="18" fill="white" transform="translate(0 0.5)"/>
</clipPath>
</defs>
</svg>
